<?xml version="1.0" ?><svg id="Layer_1" style="enable-background:new 0 0 512 512;" version="1.1" viewBox="0 0 512 512" xml:space="preserve" xmlns="http://www.w3.org/2000/svg" xmlns:xlink="http://www.w3.org/1999/xlink"><style type="text/css">
	.st0{fill:#FBD502;}
	.st1{fill:#E2B700;}
	.st2{fill:#F5A506;}
	.st3{fill:#EA6159;}
	.st4{fill:#F4908C;}
	.st5{fill:#D5373D;}
	.st6{fill:#1F3444;}
	.st7{fill:#2E4356;}
	.st8{fill:#13283B;}
	.st9{fill:#BBBF1D;}
	.st10{fill:#CCE134;}
	.st11{fill:#97BE15;}
	.st12{fill:#60A093;}
	.st13{fill:#90C9C1;}
	.st14{fill:#3D7768;}
</style><g id="XMLID_59_"><g id="XMLID_81_"><polygon class="st0" id="XMLID_85_" points="186.8,23.4 186.8,395.4 186.8,395.4 152.2,411.2 117.6,395.4 117.6,395.4 117.6,23.4       "/><polygon class="st1" id="XMLID_84_" points="152.8,23.4 152.8,411.1 152.3,411.3 117.7,395.5 117.7,395.5 117.7,23.4   "/><g id="XMLID_82_"><polyline class="st2" id="XMLID_83_" points="152.2,6.1 186.8,23.4 152.2,40.7 117.6,23.4 152.2,6.1    "/></g></g><g id="XMLID_76_"><polygon class="st3" id="XMLID_80_" points="221.4,88 221.4,411.2 221.4,411.2 186.8,427.1 152.2,411.2 152.2,411.2 152.2,88       "/><polygon class="st4" id="XMLID_79_" points="187.1,88 221.4,88 221.4,411.2 221.4,411.2 187.1,426.9   "/><g id="XMLID_77_"><polyline class="st5" id="XMLID_78_" points="186.8,70.7 221.4,88 186.8,105.3 152.2,88 186.8,70.7    "/></g></g><g id="XMLID_71_"><polygon class="st6" id="XMLID_75_" points="256,145.6 256,427 256,427 221.4,442.8 186.8,427 186.8,427 186.8,145.6   "/><polygon class="st7" id="XMLID_74_" points="221.7,145.6 256,145.6 256,427 256,427 221.7,442.7   "/><g id="XMLID_72_"><polyline class="st8" id="XMLID_73_" points="221.4,128.3 256,145.6 221.4,162.9 186.8,145.6 221.4,128.3    "/></g></g><g id="XMLID_66_"><polygon class="st9" id="XMLID_70_" points="290.6,205.7 290.6,442.8 290.6,442.8 256,458.7 221.4,442.8 221.4,442.8 221.4,205.7       "/><polygon class="st10" id="XMLID_69_" points="256,205.7 290.6,205.7 290.6,443.2 290.6,443.2 256,458.3   "/><g id="XMLID_67_"><polyline class="st11" id="XMLID_68_" points="256,188.4 290.6,205.7 256,223 221.4,205.7 256,188.4    "/></g></g><g id="XMLID_61_"><polygon class="st12" id="XMLID_65_" points="325.2,263.6 325.2,458.7 325.2,458.7 290.6,474.5 256,458.7 256,458.7 256,263.6       "/><polygon class="st13" id="XMLID_64_" points="290.9,263.6 325.2,263.6 325.2,458.7 325.2,458.7 290.9,474.3   "/><g id="XMLID_62_"><polyline class="st14" id="XMLID_63_" points="290.6,246.3 325.2,263.6 290.6,280.9 256,263.6 290.6,246.3    "/></g></g><g id="XMLID_60_"><polygon class="st0" id="XMLID_89_" points="359.6,331.3 359.6,474.4 359.6,474.4 325,490.2 290.4,474.4 290.4,474.4 290.4,331.3       "/><polygon class="st1" id="XMLID_88_" points="325.4,331.3 325.4,490 325,490.2 290.4,474.4 290.4,474.4 290.4,331.3   "/><g id="XMLID_86_"><polyline class="st2" id="XMLID_87_" points="325,314 359.6,331.3 325,348.6 290.4,331.3 325,314    "/></g></g><g id="XMLID_90_"><polygon class="st3" id="XMLID_94_" points="394.2,395.9 394.2,490.2 394.2,490.2 359.6,506.1 325,490.2 325,490.2 325,395.9       "/><polygon class="st4" id="XMLID_93_" points="360,395.9 394.2,395.9 394.2,490.2 394.2,490.2 360,505.9   "/><g id="XMLID_91_"><polyline class="st5" id="XMLID_92_" points="359.6,378.6 394.2,395.9 359.6,413.2 325,395.9 359.6,378.6    "/></g></g></g></svg>